<?xml version="1.0" encoding="utf-8"?>
<svg viewBox="0 0 500 500" xmlns="http://www.w3.org/2000/svg">
  <g transform="matrix(1, 0, 0, 1, 4.095391, 6.588875)">
    <g>
      <path d="M463.7,0.008H26c-14.4,0-26,11.7-26,26v437.3c0,14.4,11.7,26,26,26h437.3c14.4,0,26-11.7,26-26v-437.3 C489.8,11.708,478.1,0.008,463.7,0.008z M101.8,434.608c-25.7,0-46.6-21-46.6-46.6c0-25.7,21-46.6,46.6-46.6s46.6,21,46.6,46.6 C148.5,413.608,127.5,434.608,101.8,434.608z M101.8,148.508c-25.7,0-46.6-21-46.6-46.6s21-46.6,46.6-46.6s46.6,21,46.6,46.6 S127.5,148.508,101.8,148.508z M387.9,434.608c-25.7,0-46.6-21-46.6-46.6c0-25.7,21-46.6,46.6-46.6c25.7,0,46.6,21,46.6,46.6 C434.6,413.608,413.6,434.608,387.9,434.608z M387.9,148.508c-25.7,0-46.6-21-46.6-46.6s21-46.6,46.6-46.6 c25.7,0,46.6,21,46.6,46.6S413.6,148.508,387.9,148.508z" style="stroke: rgb(255, 255, 255); paint-order: fill;"/>
      <rect x="39.546" y="47.027" width="144.638" height="145.262" style=""/>
      <rect x="317.6" y="47.651" width="131.546" height="129.676" style=""/>
      <rect x="294.533" y="329.446" width="158.354" height="115.96" style=""/>
      <rect x="35.805" y="331.94" width="144.015" height="139.651" style=""/>
      <g transform="matrix(0.178232, 0, 0, -0.178232, 14.314057, 372.032776)" style="">
        <path d="M1073 536v-47h228v31q0 73 28 123q29 50 146 146q60 49 100 85.5t60 62.5q42 53 62 111.5t20 141.5q0 89 -31 160t-91.5 120.5t-149 76t-203.5 26.5q-203 0 -436 -122l86 -189q216 103 346 103q103 0 162 -50.5t59 -141.5q0 -85 -35 -143q-17 -30 -56 -68t-101 -87 q-57 -45 -95 -85.5t-58 -79.5q-41 -79 -41 -174zM1381 520v-110h-387v126q0 114 47 205q25 47 69 95t109 101q100 80 122 109t31 59t9 68q0 50 -34 82.5t-109 31.5q-36 0 -75.5 -8.5t-81.5 -22.5q-42 -15 -98 -39.5t-128 -59.5l-152 326q299 169 539 169q257 0 405 -124 q75 -63 112.5 -146t37.5 -192q0 -137 -59 -238q-29 -51 -82.5 -106.5t-132.5 -117.5q-49 -39 -79 -68t-41 -46q-12 -17 -17 -41t-5 -53zM1201 210q-166 0 -166 -158q0 -44 12.5 -74.5t34.5 -49.5t52 -27.5t65 -8.5q81 0 123 42.5t42 117.5q0 158 -163 158zM1201 -186 q-115 0 -180.5 61.5t-65.5 176.5t66 175.5t178 60.5q116 0 180.5 -62t64.5 -174q0 -54 -16.5 -98t-48 -75t-76.5 -48t-102 -17z" style="fill: rgba(255, 255, 255, 0.9);"/>
      </g>
    </g>
  </g>
  <g transform="matrix(1, 0, 0, 1, 62.698879, 14.070171)"/>
  <g transform="matrix(1, 0, 0, 1, 62.698879, 14.070171)"/>
  <g transform="matrix(1, 0, 0, 1, 62.698879, 14.070171)"/>
  <g transform="matrix(1, 0, 0, 1, 62.698879, 14.070171)"/>
  <g transform="matrix(1, 0, 0, 1, 62.698879, 14.070171)"/>
  <g transform="matrix(1, 0, 0, 1, 62.698879, 14.070171)"/>
  <g transform="matrix(1, 0, 0, 1, 62.698879, 14.070171)"/>
  <g transform="matrix(1, 0, 0, 1, 62.698879, 14.070171)"/>
  <g transform="matrix(1, 0, 0, 1, 62.698879, 14.070171)"/>
  <g transform="matrix(1, 0, 0, 1, 62.698879, 14.070171)"/>
  <g transform="matrix(1, 0, 0, 1, 62.698879, 14.070171)"/>
  <g transform="matrix(1, 0, 0, 1, 62.698879, 14.070171)"/>
  <g transform="matrix(1, 0, 0, 1, 62.698879, 14.070171)"/>
  <g transform="matrix(1, 0, 0, 1, 62.698879, 14.070171)"/>
  <g transform="matrix(1, 0, 0, 1, 62.698879, 14.070171)"/>
</svg>