<?xml version="1.0" encoding="utf-8"?>
<svg viewBox="0 0 500 500" xmlns="http://www.w3.org/2000/svg">
  <g transform="matrix(1, 0, 0, 1, 5.633331, 4.468907)">
    <g>
      <path d="M463.7,0.008H26c-14.4,0-26,11.7-26,26v437.3c0,14.4,11.7,26,26,26h437.3c14.4,0,26-11.7,26-26v-437.3 C489.8,11.708,478.1,0.008,463.7,0.008z M101.8,434.608c-25.7,0-46.6-21-46.6-46.6c0-25.7,21-46.6,46.6-46.6s46.6,21,46.6,46.6 C148.5,413.608,127.5,434.608,101.8,434.608z M101.8,148.508c-25.7,0-46.6-21-46.6-46.6s21-46.6,46.6-46.6s46.6,21,46.6,46.6 S127.5,148.508,101.8,148.508z M387.9,434.608c-25.7,0-46.6-21-46.6-46.6c0-25.7,21-46.6,46.6-46.6c25.7,0,46.6,21,46.6,46.6 C434.6,413.608,413.6,434.608,387.9,434.608z M387.9,148.508c-25.7,0-46.6-21-46.6-46.6s21-46.6,46.6-46.6 c25.7,0,46.6,21,46.6,46.6S413.6,148.508,387.9,148.508z"/>
    </g>
  </g>
  <g transform="matrix(1, 0, 0, 1, 5.633331, 4.468907)"/>
  <g transform="matrix(1, 0, 0, 1, 5.633331, 4.468907)"/>
  <g transform="matrix(1, 0, 0, 1, 5.633331, 4.468907)"/>
  <g transform="matrix(1, 0, 0, 1, 5.633331, 4.468907)"/>
  <g transform="matrix(1, 0, 0, 1, 5.633331, 4.468907)"/>
  <g transform="matrix(1, 0, 0, 1, 5.633331, 4.468907)"/>
  <g transform="matrix(1, 0, 0, 1, 5.633331, 4.468907)"/>
  <g transform="matrix(1, 0, 0, 1, 5.633331, 4.468907)"/>
  <g transform="matrix(1, 0, 0, 1, 5.633331, 4.468907)"/>
  <g transform="matrix(1, 0, 0, 1, 5.633331, 4.468907)"/>
  <g transform="matrix(1, 0, 0, 1, 5.633331, 4.468907)"/>
  <g transform="matrix(1, 0, 0, 1, 5.633331, 4.468907)"/>
  <g transform="matrix(1, 0, 0, 1, 5.633331, 4.468907)"/>
  <g transform="matrix(1, 0, 0, 1, 5.633331, 4.468907)"/>
  <g transform="matrix(1, 0, 0, 1, 5.633331, 4.468907)"/>
</svg>